---
title: 萧丽珠.1990-闽南语专辑【歌林】【WAV+CUE】
date: 2023-04-12 09:00:25
categories: 闽南语(台语)
tags: 华语中文
---
# 萧丽珠.1990-闽南语专辑【歌林】【WAV+CUE】

REM GENRE POP
REM DATE 1990
PERFORMER "萧孋珠"
TITLE "闽南语专辑"
FILE "萧孋珠.-.[闽南语专辑](1990)[WAV].wav" WAVE
TRACK 01 AUDIO
TITLE "情关"
PERFORMER "萧孋珠"
INDEX 01 00:00:00
TRACK 02 AUDIO
TITLE "讲天讲地无路用"
PERFORMER "萧孋珠"
INDEX 00 03:58:57
INDEX 01 04:00:55
TRACK 03 AUDIO
TITLE "到底为按怎"
PERFORMER "萧孋珠"
INDEX 00 07:54:02
INDEX 01 07:56:02
TRACK 04 AUDIO
TITLE "选对象"
PERFORMER "萧孋珠"
INDEX 00 12:01:40
INDEX 01 12:07:05
TRACK 05 AUDIO
TITLE "为你等落去"
PERFORMER "萧孋珠"
INDEX 00 15:30:37
INDEX 01 15:35:40
TRACK 06 AUDIO
TITLE "回头步"
PERFORMER "萧孋珠"
INDEX 00 19:25:67
INDEX 01 19:29:22
TRACK 07 AUDIO
TITLE "梦来梦去"
PERFORMER "萧孋珠"
INDEX 00 23:54:47
INDEX 01 23:57:70
TRACK 08 AUDIO
TITLE "乃街"
PERFORMER "萧孋珠"
INDEX 00 27:34:45
INDEX 01 27:38:55
TRACK 09 AUDIO
TITLE "坚心来磋"
PERFORMER "萧孋珠"
INDEX 00 31:57:42
INDEX 01 32:00:55
TRACK 10 AUDIO
TITLE "明明知"
PERFORMER "萧孋珠"
INDEX 00 35:38:62
INDEX 01 35:41:37
TRACK 11 AUDIO
TITLE "错安排"
PERFORMER "萧孋珠"
INDEX 00 38:58:55
INDEX 01 39:01:70
TRACK 12 AUDIO
TITLE "千万不通说要切"
PERFORMER "萧孋珠"
INDEX 00 42:49:22
INDEX 01 42:52:20
TRACK 13 AUDIO
TITLE "难忘的凤凰桥"
PERFORMER "萧孋珠"
INDEX 00 46:32:42
INDEX 01 46:36:72
TRACK 14 AUDIO
TITLE "思想起"
PERFORMER "萧孋珠"
INDEX 00 49:53:61
INDEX 01 49:56:65
萧丽珠.1990 - 闽南语专辑【歌林】【WAV+CUE】.rar: https://url27.ctfile.com/f/9388027-838805244-861539?p=559675
(访问密码: 559675)
天碟大赏《萧丽珠世纪精选》[正版原抓W+CUE].zip: https://url27.ctfile.com/f/9388027-427585564-8ad91f?p=559675
(访问密码: 559675)
萧丽珠.2002 - 遇见真情 CD1【歌林】【WAV+CUE】.rar: https://url27.ctfile.com/f/9388027-706192900-49c4b7?p=559675
(访问密码: 559675)
萧丽珠.2002 - 遇见真情 CD2【歌林】【WAV+CUE】.rar: https://url27.ctfile.com/f/9388027-706192897-80698a?p=559675
(访问密码: 559675)
萧丽珠.1988 - 中国老歌精粹【白云唱片】【WAV+CUE】.rar: https://url27.ctfile.com/f/9388027-838805202-357567?p=559675
(访问密码: 559675)
原文：[链接](https://blog.sina.com.cn/s/blog_1647c7e76010311et.html)